<?xml version="1.0" encoding="UTF-8" standalone="no"?>
<!-- Created with Inkscape (http://www.inkscape.org/) -->

<svg
   xmlns:dc="http://purl.org/dc/elements/1.1/"
   xmlns:cc="http://creativecommons.org/ns#"
   xmlns:rdf="http://www.w3.org/1999/02/22-rdf-syntax-ns#"
   xmlns:svg="http://www.w3.org/2000/svg"
   xmlns="http://www.w3.org/2000/svg"
   xmlns:sodipodi="http://sodipodi.sourceforge.net/DTD/sodipodi-0.dtd"
   xmlns:inkscape="http://www.inkscape.org/namespaces/inkscape"
   id="svg2"
   version="1.1"
   inkscape:version="0.92.4 (5da689c313, 2019-01-14)"
   width="512"
   height="512"
   xml:space="preserve"
   sodipodi:docname="logozondertekst.svg"
   inkscape:export-filename="/home/rubenhensen/Downloads/mbglogozondertekst192.png"
   inkscape:export-xdpi="36"
   inkscape:export-ydpi="36"><metadata
     id="metadata8"><rdf:RDF><cc:Work
         rdf:about=""><dc:format>image/svg+xml</dc:format><dc:type
           rdf:resource="http://purl.org/dc/dcmitype/StillImage" /><dc:title></dc:title></cc:Work></rdf:RDF></metadata><defs
     id="defs6"><clipPath
       clipPathUnits="userSpaceOnUse"
       id="clipPath18"><path
         d="M 0,2625.51 H 3510 V 15.5117 H 0 Z"
         id="path20"
         inkscape:connector-curvature="0" /></clipPath></defs><sodipodi:namedview
     pagecolor="#ffffff"
     bordercolor="#666666"
     borderopacity="1"
     objecttolerance="10"
     gridtolerance="10"
     guidetolerance="10"
     inkscape:pageopacity="0"
     inkscape:pageshadow="2"
     inkscape:window-width="1920"
     inkscape:window-height="1043"
     id="namedview4"
     showgrid="false"
     inkscape:zoom="1.4357414"
     inkscape:cx="86.447428"
     inkscape:cy="258.71867"
     inkscape:window-x="0"
     inkscape:window-y="367"
     inkscape:window-maximized="1"
     inkscape:current-layer="g10" /><g
     id="g10"
     inkscape:groupmode="layer"
     inkscape:label="ink_ext_XXXXXX"
     transform="matrix(1.25,0,0,-1.25,0,512)"><g
       id="g12"
       transform="matrix(0.18295147,0,0,0.18295147,-92.495765,-21.654338)"><g
         id="g14"><g
           id="g16"
           clip-path="url(#clipPath18)"><path
   d="m 1959.2193,2011.3859 c 47.911,-55.2582 69.4906,-132.1318 69.7157,-193.7475 15.0974,16.4606 30.3252,30.7792 45.0907,43.3566 -11.7081,39.1069 -30.7872,77.7671 -58.3749,109.5773 -20.1812,23.2762 -43.6568,41.6155 -69.6684,54.7313 4.5387,-4.433 8.9826,-8.9921 13.2369,-13.9177"
   style="fill:#d2d4d5;fill-opacity:1;fill-rule:nonzero;stroke:none"
   id="path22"
   inkscape:connector-curvature="0" /><path
   d="m 2346.5845,1069.67 c -0.6992,1.031 -1.9435,2.6805 -4.2187,4.834 -0.047,0 -5.9726,3.9748 -24.8977,3.9748 -40.9194,0 -103.833,-18.2018 -164.1989,-47.5148 -29.0689,-14.0895 -46.6075,-39.46196 -44.664,-64.65121 1.7538,-23.18464 19.3516,-41.21918 49.5345,-50.7943 3.5552,-1.21307 7.2169,-2.05844 10.9142,-2.99774 -0.5095,1.87402 -0.8769,3.80302 -1.0191,5.77211 -1.5168,20.13879 13.2013,40.76901 37.542,52.57897 4.3965,2.1077 8.8048,4.15812 13.2013,6.17417 -4.2661,9.53045 -5.9252,19.64511 -4.4439,29.9774 3.2826,23.0013 23.3216,46.5411 60.6858,47.3429 29.389,0.63 59.8919,7.1593 67.0732,11.1914 1.5761,0.8935 3.3774,2.6805 4.4913,4.1123"
   style="fill:#d2d4d5;fill-opacity:1;fill-rule:nonzero;stroke:none"
   id="path24"
   inkscape:connector-curvature="0" /><path
   d="m 2321.675,916.76707 c -12.0281,2.10769 -22.0773,4.3895 -29.5312,6.58655 -17.4082,5.14552 -32.3515,12.26014 -44.4389,20.71383 1.2917,-13.02647 6.4822,-25.46646 15.0974,-36.73804 18.6999,1.96909 35.8237,5.19134 50.6841,7.96113 2.8204,0.49141 5.5578,0.98397 8.1886,1.47653"
   style="fill:#d2d4d5;fill-opacity:1;fill-rule:nonzero;stroke:none"
   id="path26"
   inkscape:connector-curvature="0" /><path
   d="m 2448.8888,1594.1769 c -18.8895,-76.6102 -62.5463,-143.0484 -108.7391,-195.5804 28.4646,2.417 59.8563,3.4021 94.2461,2.3712 2.69,-0.092 5.2734,-0.275 7.9635,-0.401 28.5594,41.879 52.7223,89.4854 65.6392,141.7998 43.2302,175.2136 20.3234,359.4307 -28.2394,400.9546 -8.2835,7.125 -21.39,15.1777 -39.8055,19.3817 33.7381,-62.3374 45.4107,-220.6895 8.9352,-368.5259"
   style="fill:#d2d4d5;fill-opacity:1;fill-rule:nonzero;stroke:none"
   id="path28"
   inkscape:connector-curvature="0" /><path
   d="m 1661.8932,1038.2608 c 4.2188,0 19.7309,2.1879 42.3651,30.6074 35.2668,44.3418 17.823,114.3196 -54.9502,220.2771 -4.0765,5.9107 -8.1056,10.8248 -12.1229,14.9486 13.8768,-39.3819 22.2194,-80.6308 24.8502,-123.3689 2.6901,-43.4941 -1.2917,-88.7753 -12.1703,-137.7677 3.6499,-2.6805 7.7738,-4.6965 12.0281,-4.6965"
   style="fill:#d2d4d5;fill-opacity:1;fill-rule:nonzero;stroke:none"
   id="path30"
   inkscape:connector-curvature="0" /><path
   d="m 2698.5763,1274.6434 c -17.9651,24.3874 -41.7963,43.8607 -71.3393,58.3969 5.1431,-5.2807 9.907,-10.8707 14.2679,-16.7814 41.4763,-56.1975 45.778,-136.7825 12.9051,-239.4754 -33.8803,-105.46493 -128.9559,-165.95922 -260.9336,-165.95922 -0.1422,-0.0939 -0.2844,0 -0.4621,0 7.7264,-5.3288 12.5377,-11.63814 15.3699,-16.42627 6.2452,-10.56368 11.4712,-28.18928 1.3391,-52.30291 -19.956,-47.38992 -108.2769,-133.83864 -234.4124,-168.83325 -24.625,-6.79274 -50.2337,-10.28762 -76.0083,-10.28762 -71.1497,0 -131.6577,26.17666 -169.7922,48.05202 -11.9452,-13.8707 -26.7582,-29.43786 -44.0716,-46.21695 -40.872,-39.64986 -330.9811,-313.0855 -373.9862,-341.67799 -18.4273,-12.21088 -38.4189,-18.65883 -57.818,-18.65883 -14.5285,0 -28.275,3.84884 -39.9002,10.60492 1.4813,-12.74812 6.02,-25.09761 13.6991,-36.02441 15.8321,-22.54317 43.005,-36.05991 72.7257,-36.05991 22.0299,0 44.5338,7.25322 65.1297,20.94064 45.8728,30.4665 343.1515,311.43371 375.8348,343.1087 14.3982,13.96119 27.0307,27.03119 37.8146,39.0588 39.8647,-21.4332 98.6544,-44.55828 166.877,-44.55828 26.9952,0 53.8008,3.61974 79.5754,10.77903 130.3067,36.1149 221.9694,126.45139 242.8379,176.16322 11.6727,27.65318 6.0674,48.6385 -1.2442,61.70964 124.0142,7.86606 213.0342,70.29507 246.3101,174.01087 34.1646,106.6333 29.2112,190.8839 -14.7182,250.4377"
   style="fill:#d2d4d5;fill-opacity:1;fill-rule:nonzero;stroke:none"
   id="path32"
   inkscape:connector-curvature="0" /><path
   d="m 1457.012,1914.558 c 10.9261,10.6874 23.1082,21.9704 36.2029,33.4253 -28.7016,79.1531 -77.1223,163.0943 -158.2618,205.2482 68.5544,-64.0327 104.153,-163.9993 122.0589,-238.6735"
   style="fill:#d2d4d5;fill-opacity:1;fill-rule:nonzero;stroke:none"
   id="path34"
   inkscape:connector-curvature="0" /><path
   d="m 1486.2706,560.37301 c 27.2677,40.67852 53.0541,79.10501 67.3101,101.88988 12.2178,19.55345 24.2578,45.50216 34.6269,70.78304 -21.4848,-5.4548 -44.8537,-9.97833 -68.4715,-11.952 C 1481.092,642.74494 1405.0836,512.62914 1326.8,512.62914 c -6.5769,0 -13.142,0.84537 -19.4346,2.55558 -7.8331,2.09395 -14.9078,5.1902 -21.2951,8.98863 0.8295,-5.86145 2.1212,-11.72749 4.2069,-17.41025 9.4447,-25.98765 30.8346,-44.65106 60.1288,-52.57554 7.4065,-1.95992 15.1448,-2.98972 22.9186,-2.98972 16.9461,0 33.5603,5.18677 49.7124,14.13531 15.7373,24.1228 36.5228,55.25597 63.2336,95.03986"
   style="fill:#d2d4d5;fill-opacity:1;fill-rule:nonzero;stroke:none"
   id="path36"
   inkscape:connector-curvature="0" /><path
   d="m 1322.7709,987.56157 c -42.4955,-21.16859 -89.4704,-28.1446 -131.9658,-28.4997 h -2.9626 c -77.9637,0 -124.2513,27.46876 -151.1398,55.21243 6.0082,-14.71948 13.7465,-29.03807 23.9259,-42.37153 25.9287,-33.87204 77.0749,-74.28709 173.7266,-74.28709 h 3.01 c 24.1629,0.18328 49.6768,2.50976 75.084,8.06308 -0.095,27.96132 4.1239,55.8459 10.3217,81.88281"
   style="fill:#d2d4d5;fill-opacity:1;fill-rule:nonzero;stroke:none"
   id="path38"
   inkscape:connector-curvature="0" /><path
   d="m 985.63938,1170.3927 c -24.4355,-8.9921 -54.3932,-13.9177 -84.3865,-13.9177 -59.5245,0 -158.30926,18.8891 -239.1881,126.0494 92.63205,-167.8826 227.8473,-187.4819 285.7127,-187.4819 15.0381,0 29.9933,1.2944 44.4389,3.574 -5.7948,24.3874 -7.3117,49.0497 -6.577,71.7762"
   style="fill:#d2d4d5;fill-opacity:1;fill-rule:nonzero;stroke:none"
   id="path40"
   inkscape:connector-curvature="0" /><path
   d="m 1320.1401,555.32142 c 46.9868,-12.66794 127.8064,116.55324 170.4322,210.52781 42.6376,94.01007 133.6486,251.91877 124.0142,407.94557 -9.7173,156.0267 -99.8394,242.0756 -111.9268,260.1514 -12.0874,18.0758 330.5663,-191.2962 429.5288,-36.4265 129.7973,203.0146 -120.0799,278.2272 -120.0799,278.2272 0,0 151.1872,21.0312 166.6045,105.2473 15.4648,84.6057 -36.8072,280.1058 -218.912,251.9154 -182.0574,-28.1904 -333.1498,-225.615 -333.1498,-225.615 0,0 -25.1346,293.3133 -191.7391,349.6941 -166.5453,56.3809 -437.76732,-33.8262 -385.45732,-259.4412 50.5892,-218.3068 123.9668,-269.8079 123.9668,-269.8079 0,0 -424.20807,10.3781 -329.30786,-220.8269 94.94169,-231.2393 265.37506,-219.9677 325.42096,-197.3673 60.03402,22.5546 77.48962,39.4162 77.48962,39.4162 0,0 -79.38572,-249.99098 143.354,-248.1124 222.7516,1.8786 216.9213,197.3788 220.8082,287.6202 3.8395,90.2529 -5.226,111.685 -5.226,111.685 0,0 150.4879,-109.7949 135.0232,-248.9142 -15.5477,-139.108 -44.6167,-259.43214 -106.5586,-351.51894 -61.9775,-92.13147 -184.0009,-225.61157 -114.2851,-244.39984"
   style="fill:#8c4752;fill-opacity:1;fill-rule:nonzero;stroke:none"
   id="path42"
   inkscape:connector-curvature="0" /><path
   d="m 1666.2068,805.17607 c 0,0 -34.0699,-110.25307 -71.9437,-170.88367 -37.8146,-60.6306 -153.3084,-225.96095 -164.6492,-253.53281 -11.3882,-27.55926 18.8895,-47.74387 54.8554,-23.8937 36.0133,23.8937 308.5721,279.257 367.267,336.22204 58.6475,56.92151 65.8289,77.62962 65.8289,77.62962 0,0 112.1164,-94.13608 244.5918,-57.445 132.5347,36.73689 214.7882,137.36444 204.8812,154.14925 -9.9069,16.73441 -113.9651,-34.73229 -223.7588,0.21879 -109.8531,34.90183 -106.0135,154.33141 -11.3882,200.24251 94.6134,45.9454 206.3151,71.6731 244.2244,34.9029 37.8146,-36.7357 9.4448,-69.8059 -9.4447,-80.814 -18.9725,-11.054 -61.8946,-17.1365 -90.5843,-17.7665 -28.7016,-0.63 -13.6161,-28.19044 29.9459,-41.07716 43.562,-12.8409 249.8771,-42.23637 302.9194,123.13976 52.9594,165.3396 1.8605,259.0289 -176.0374,264.5387 -177.9927,5.4983 -268.8496,-47.7439 -268.8496,-47.7439 0,0 194.9743,121.2154 238.5245,297.5974 43.562,176.3935 10.4639,326.5095 -9.4329,343.5658 -32.2212,27.5604 -142.6786,-25.6475 -196.8822,-58.7979 -51.1463,-31.2374 -143.8636,-84.5254 -208.2586,-214.9619 -64.3476,-130.4366 -85.1687,-301.2744 -85.1687,-301.2744 0,0 -49.2146,202.0752 -185.494,231.4684 -136.3268,29.4046 -380.5039,-110.2072 -416.4698,-214.9505 -35.9777,-104.7089 81.424,-216.7948 130.6268,-209.4064 49.2028,7.3311 -20.833,101.0319 47.3067,148.7758 68.1397,47.7897 153.3202,68.0075 210.1191,-14.6737 56.7989,-82.6927 117.3899,-192.9457 52.9949,-273.7599 -64.3831,-80.84837 -134.3715,-53.28797 -162.8005,27.5604 -28.3698,80.86 -9.4448,132.2694 -18.8895,150.6659 -9.4803,18.3393 -123.0781,-64.3419 -155.2519,-139.6577 -32.1738,-75.30428 -81.3765,-207.57361 -1.896,-282.92485 79.5279,-75.30657 263.114,12.88672 263.114,12.88672"
   style="fill:#2a5474;fill-opacity:1;fill-rule:nonzero;stroke:none"
   id="path44"
   inkscape:connector-curvature="0" /><text
   xml:space="preserve"
   style="font-style:normal;font-weight:normal;line-height:0%;font-family:sans-serif;letter-spacing:0px;word-spacing:0px;fill:#8c4752;fill-opacity:1;stroke:none"
   x="23.681145"
   y="303.67584"
   id="text3197"
   transform="matrix(8,0,0,-8,0,2630)"><tspan
     sodipodi:role="line"
     id="tspan3199"
     x="23.681145"
     y="303.67584"
     style="font-size:40px;line-height:1.25;font-family:sans-serif"> </tspan></text>


<text
   xml:space="preserve"
   style="font-style:normal;font-variant:normal;font-weight:bold;font-stretch:normal;line-height:0%;font-family:sans-serif;-inkscape-font-specification:'Sans Bold';text-align:start;letter-spacing:0px;word-spacing:0px;writing-mode:lr-tb;text-anchor:start;fill:#8c4752;fill-opacity:1;stroke:none"
   x="-2133.2646"
   y="-3058.8867"
   id="text3201-0"
   transform="scale(1,-1)"><tspan
     sodipodi:role="line"
     id="tspan3211-6"
     style="font-style:normal;font-variant:normal;font-weight:bold;font-stretch:normal;font-size:144px;line-height:125%;font-family:sans-serif;-inkscape-font-specification:'Sans Bold';text-align:start;writing-mode:lr-tb;text-anchor:start"
     x="-2133.2646"
     y="-3058.8867">Zandberg 4  -  http://www.scoutingmbg.nl/</tspan></text>


</g></g></g></g></svg>